<svg width="22" height="22" viewBox="0 0 22 22" fill="none" xmlns="http://www.w3.org/2000/svg">
<path opacity="0.3" d="M9.45627 21.1204L4.07775 18.1642C3.59394 17.8959 3.19101 17.5077 2.90961 17.0385C2.62821 16.5694 2.47828 16.0359 2.47495 15.492V9.48495C2.47059 8.94127 2.60991 8.4057 2.87942 7.93016C3.14892 7.45462 3.53947 7.05524 4.01321 6.77072L9.31643 3.71983C9.80056 3.45249 10.3471 3.31201 10.9031 3.31201C11.4591 3.31201 12.0056 3.45249 12.4898 3.71983L17.8683 6.67603C18.3493 6.95001 18.7498 7.34104 19.0306 7.81111C19.3115 8.28119 19.4632 8.81432 19.4711 9.35871L19.5249 15.3658C19.5251 15.9097 19.3817 16.4445 19.1084 16.9182C18.8351 17.3919 18.4413 17.7885 17.9651 18.0695L12.6619 21.1099C12.177 21.3908 11.6241 21.5399 11.0605 21.5418C10.4969 21.5436 9.94308 21.3981 9.45627 21.1204Z" fill="#A594FD"/>
<path d="M10.9729 9.04517C11.0959 9.04524 11.2168 9.07471 11.3254 9.1311C11.4342 9.18761 11.527 9.26958 11.5959 9.36938L12.2307 10.2844C12.3271 10.4246 12.4728 10.5257 12.6399 10.5686L13.7151 10.8948C13.8321 10.9293 13.9395 10.9906 14.0266 11.0745C14.1137 11.1584 14.178 11.2623 14.2151 11.3762C14.2521 11.4901 14.26 11.6111 14.2385 11.7288C14.217 11.8465 14.1671 11.9576 14.092 12.052L13.4036 12.925C13.2964 13.0598 13.2431 13.2283 13.2532 13.3987V14.4504C13.2588 14.5688 13.2348 14.6867 13.1838 14.7942C13.1328 14.9017 13.0563 14.9963 12.9602 15.0686C12.8642 15.1408 12.7513 15.1886 12.6321 15.2092C12.5127 15.2299 12.3893 15.2225 12.2737 15.1868L11.1985 14.8186C11.0352 14.7607 10.856 14.7607 10.6926 14.8186L9.61743 15.176C9.50232 15.2152 9.37861 15.2268 9.25806 15.2092C9.13764 15.1916 9.02336 15.1457 8.92505 15.0754C8.82665 15.0051 8.7473 14.912 8.6936 14.8049C8.64 14.698 8.61321 14.5802 8.61646 14.4612V13.3567C8.61724 13.1859 8.56068 13.0192 8.45532 12.8831L7.8313 12.0305C7.75639 11.9355 7.70659 11.8236 7.68579 11.7053C7.66507 11.5871 7.67402 11.4658 7.71216 11.3518C7.75034 11.2378 7.81627 11.1344 7.90454 11.051C7.99284 10.9677 8.10109 10.9066 8.21899 10.8733L9.29419 10.5579C9.46001 10.5124 9.60493 10.4119 9.70337 10.2737L10.3489 9.36938C10.4178 9.26958 10.5106 9.18761 10.6194 9.1311C10.7281 9.07463 10.8498 9.04517 10.9729 9.04517ZM14.0598 0.458252C14.893 0.45821 15.6932 0.779548 16.2854 1.35278C16.8775 1.92601 17.2144 2.70502 17.2229 3.51978V6.34985L12.4895 3.72974C12.0054 3.46244 11.4585 3.32251 10.9026 3.32251C10.3467 3.32255 9.79974 3.46243 9.31567 3.72974L4.7229 6.37036V3.51978C4.7314 2.70495 5.06822 1.92602 5.6604 1.35278C6.25247 0.779671 7.05199 0.458328 7.88501 0.458252H14.0598Z" fill="#A594FD"/>
</svg>
