<svg width="12" height="12" viewBox="0 0 12 12" fill="none" xmlns="http://www.w3.org/2000/svg">
<g clip-path="url(#clip0_94_2486)">
<mask id="path-1-inside-1_94_2486" fill="white">
<path d="M7.92552 1.33699C8.29162 1.34026 8.65349 1.41562 8.99047 1.55876C9.32744 1.70189 9.63293 1.91 9.88947 2.1712C10.146 2.4324 10.3486 2.74158 10.4856 3.08107C10.6227 3.42057 10.6915 3.78374 10.6882 4.14984V7.88025C10.6915 8.24635 10.6227 8.60951 10.4856 8.94901C10.3486 9.2885 10.146 9.59768 9.88947 9.85888C9.63293 10.1201 9.32744 10.3282 8.99047 10.4713C8.65349 10.6145 8.29162 10.6898 7.92552 10.6931H4.07478C3.70868 10.6898 3.34681 10.6145 3.00983 10.4713C2.67285 10.3282 2.36737 10.1201 2.11083 9.85888C1.85428 9.59768 1.6517 9.2885 1.51465 8.94901C1.3776 8.60951 1.30876 8.24635 1.31207 7.88025V4.14984C1.30876 3.78374 1.3776 3.42057 1.51465 3.08107C1.6517 2.74158 1.85428 2.4324 2.11083 2.1712C2.36737 1.91 2.67285 1.70189 3.00983 1.55876C3.34681 1.41562 3.70868 1.34026 4.07478 1.33699H7.92552ZM7.0581 5.01224H7.61465L6.47146 6.26073C6.45857 6.26576 6.44425 6.26576 6.43135 6.26073C6.42665 6.26296 6.42151 6.26411 6.41631 6.26411C6.41111 6.26411 6.40597 6.26296 6.40127 6.26073L5.67925 5.67409C5.5452 5.56755 5.37917 5.50927 5.20794 5.50863C5.10743 5.5079 5.00786 5.52802 4.91551 5.56772C4.82317 5.60741 4.74007 5.66583 4.67144 5.73927L3.54831 6.88748C3.48336 6.95477 3.44706 7.04465 3.44706 7.13818C3.44706 7.2317 3.48336 7.32158 3.54831 7.38888C3.58024 7.42352 3.619 7.45116 3.66215 7.47007C3.7053 7.48898 3.7519 7.49875 3.79901 7.49875C3.84612 7.49875 3.89272 7.48898 3.93587 7.47007C3.97902 7.45116 4.01778 7.42352 4.04971 7.38888L5.17284 6.22062C5.18423 6.21679 5.19655 6.21679 5.20794 6.22062H5.23802L5.96505 6.80725C6.09522 6.9178 6.26058 6.97825 6.43135 6.97773C6.53527 6.9771 6.63793 6.95495 6.73286 6.91266C6.82779 6.87038 6.91292 6.80888 6.98289 6.73204L8.06591 5.51364V6.01504C8.06591 6.06113 8.07499 6.10677 8.09263 6.14936C8.11027 6.19194 8.13612 6.23063 8.16871 6.26322C8.2013 6.29581 8.24 6.32167 8.28258 6.3393C8.32516 6.35694 8.3708 6.36602 8.41689 6.36602C8.46298 6.36602 8.50863 6.35694 8.55121 6.3393C8.59379 6.32167 8.63248 6.29581 8.66507 6.26322C8.69766 6.23063 8.72352 6.19194 8.74116 6.14936C8.75879 6.10677 8.76787 6.06113 8.76787 6.01504V4.63118C8.76854 4.58443 8.75998 4.538 8.7427 4.49456C8.72542 4.45111 8.69975 4.4115 8.66716 4.37798C8.63457 4.34445 8.59569 4.31768 8.55275 4.29918C8.50981 4.28068 8.46364 4.27083 8.41689 4.27017H7.0581C6.97032 4.28057 6.88941 4.32281 6.8307 4.38889C6.77199 4.45496 6.73957 4.54028 6.73957 4.62867C6.73957 4.71706 6.77199 4.80238 6.8307 4.86846C6.88941 4.93453 6.97032 4.97677 7.0581 4.98717M7.92552 0.625H4.07478C3.15176 0.636868 2.27058 1.01188 1.6221 1.66881C0.973611 2.32575 0.610031 3.21171 0.610107 4.13479V7.8652C0.610031 8.78829 0.973611 9.67425 1.6221 10.3312C2.27058 10.9881 3.15176 11.3631 4.07478 11.375H7.92552C8.84854 11.3631 9.72971 10.9881 10.3782 10.3312C11.0267 9.67425 11.3903 8.78829 11.3902 7.8652V4.14984C11.3903 3.22675 11.0267 2.34079 10.3782 1.68386C9.72971 1.02692 8.84854 0.65191 7.92552 0.640042V0.625Z"/>
</mask>
<path d="M7.92552 1.33699C8.29162 1.34026 8.65349 1.41562 8.99047 1.55876C9.32744 1.70189 9.63293 1.91 9.88947 2.1712C10.146 2.4324 10.3486 2.74158 10.4856 3.08107C10.6227 3.42057 10.6915 3.78374 10.6882 4.14984V7.88025C10.6915 8.24635 10.6227 8.60951 10.4856 8.94901C10.3486 9.2885 10.146 9.59768 9.88947 9.85888C9.63293 10.1201 9.32744 10.3282 8.99047 10.4713C8.65349 10.6145 8.29162 10.6898 7.92552 10.6931H4.07478C3.70868 10.6898 3.34681 10.6145 3.00983 10.4713C2.67285 10.3282 2.36737 10.1201 2.11083 9.85888C1.85428 9.59768 1.6517 9.2885 1.51465 8.94901C1.3776 8.60951 1.30876 8.24635 1.31207 7.88025V4.14984C1.30876 3.78374 1.3776 3.42057 1.51465 3.08107C1.6517 2.74158 1.85428 2.4324 2.11083 2.1712C2.36737 1.91 2.67285 1.70189 3.00983 1.55876C3.34681 1.41562 3.70868 1.34026 4.07478 1.33699H7.92552ZM7.0581 5.01224H7.61465L6.47146 6.26073C6.45857 6.26576 6.44425 6.26576 6.43135 6.26073C6.42665 6.26296 6.42151 6.26411 6.41631 6.26411C6.41111 6.26411 6.40597 6.26296 6.40127 6.26073L5.67925 5.67409C5.5452 5.56755 5.37917 5.50927 5.20794 5.50863C5.10743 5.5079 5.00786 5.52802 4.91551 5.56772C4.82317 5.60741 4.74007 5.66583 4.67144 5.73927L3.54831 6.88748C3.48336 6.95477 3.44706 7.04465 3.44706 7.13818C3.44706 7.2317 3.48336 7.32158 3.54831 7.38888C3.58024 7.42352 3.619 7.45116 3.66215 7.47007C3.7053 7.48898 3.7519 7.49875 3.79901 7.49875C3.84612 7.49875 3.89272 7.48898 3.93587 7.47007C3.97902 7.45116 4.01778 7.42352 4.04971 7.38888L5.17284 6.22062C5.18423 6.21679 5.19655 6.21679 5.20794 6.22062H5.23802L5.96505 6.80725C6.09522 6.9178 6.26058 6.97825 6.43135 6.97773C6.53527 6.9771 6.63793 6.95495 6.73286 6.91266C6.82779 6.87038 6.91292 6.80888 6.98289 6.73204L8.06591 5.51364V6.01504C8.06591 6.06113 8.07499 6.10677 8.09263 6.14936C8.11027 6.19194 8.13612 6.23063 8.16871 6.26322C8.2013 6.29581 8.24 6.32167 8.28258 6.3393C8.32516 6.35694 8.3708 6.36602 8.41689 6.36602C8.46298 6.36602 8.50863 6.35694 8.55121 6.3393C8.59379 6.32167 8.63248 6.29581 8.66507 6.26322C8.69766 6.23063 8.72352 6.19194 8.74116 6.14936C8.75879 6.10677 8.76787 6.06113 8.76787 6.01504V4.63118C8.76854 4.58443 8.75998 4.538 8.7427 4.49456C8.72542 4.45111 8.69975 4.4115 8.66716 4.37798C8.63457 4.34445 8.59569 4.31768 8.55275 4.29918C8.50981 4.28068 8.46364 4.27083 8.41689 4.27017H7.0581C6.97032 4.28057 6.88941 4.32281 6.8307 4.38889C6.77199 4.45496 6.73957 4.54028 6.73957 4.62867C6.73957 4.71706 6.77199 4.80238 6.8307 4.86846C6.88941 4.93453 6.97032 4.97677 7.0581 4.98717M7.92552 0.625H4.07478C3.15176 0.636868 2.27058 1.01188 1.6221 1.66881C0.973611 2.32575 0.610031 3.21171 0.610107 4.13479V7.8652C0.610031 8.78829 0.973611 9.67425 1.6221 10.3312C2.27058 10.9881 3.15176 11.3631 4.07478 11.375H7.92552C8.84854 11.3631 9.72971 10.9881 10.3782 10.3312C11.0267 9.67425 11.3903 8.78829 11.3902 7.8652V4.14984C11.3903 3.22675 11.0267 2.34079 10.3782 1.68386C9.72971 1.02692 8.84854 0.65191 7.92552 0.640042V0.625Z" fill="white"/>
<path d="M7.92552 1.33699L7.93447 0.336987H7.92552V1.33699ZM10.6882 4.14984L9.68823 4.1408V4.14984H10.6882ZM10.6882 7.88025H9.68819L9.68827 7.88928L10.6882 7.88025ZM7.92552 10.6931V11.6931L7.93447 11.6931L7.92552 10.6931ZM4.07478 10.6931L4.06582 11.6931H4.07478V10.6931ZM1.31207 7.88025L2.31207 7.88928V7.88025H1.31207ZM1.31207 4.14984H2.31211L2.31203 4.1408L1.31207 4.14984ZM4.07478 1.33699V0.336947L4.06582 0.337027L4.07478 1.33699ZM7.61465 5.01224L8.35218 5.68757L9.88621 4.01224H7.61465V5.01224ZM6.47146 6.26073L6.8351 7.19227L7.05185 7.10766L7.20899 6.93605L6.47146 6.26073ZM6.43135 6.26073L6.79499 5.32919L6.39283 5.1722L6.00278 5.35722L6.43135 6.26073ZM6.41631 6.26411V5.26411V6.26411ZM6.40127 6.26073L5.77068 7.03684L5.86403 7.11269L5.9727 7.16424L6.40127 6.26073ZM5.67925 5.67409L6.30988 4.89793L6.30142 4.8912L5.67925 5.67409ZM5.20794 5.50863L5.20068 6.50861L5.2042 6.50862L5.20794 5.50863ZM4.67144 5.73927L5.38631 6.43853L5.3943 6.43036L5.40211 6.422L4.67144 5.73927ZM3.54831 6.88748L2.83342 6.1882L2.82876 6.19303L3.54831 6.88748ZM3.54831 7.38888L4.2836 6.71113L4.27582 6.70269L4.26785 6.69443L3.54831 7.38888ZM4.04971 7.38888L3.32881 6.69583L3.32153 6.7034L3.31441 6.71113L4.04971 7.38888ZM5.17284 6.22062L4.85466 5.27259L4.62202 5.35067L4.45195 5.52757L5.17284 6.22062ZM5.20794 6.22062L4.88976 7.16864L5.0446 7.22062H5.20794V6.22062ZM5.23802 6.22062L5.86598 5.44237L5.59116 5.22062H5.23802V6.22062ZM5.96505 6.80725L6.61235 6.04502L6.60278 6.03689L6.59301 6.02901L5.96505 6.80725ZM6.43135 6.97773L6.4344 7.97773L6.43737 7.97771L6.43135 6.97773ZM6.98289 6.73204L7.7223 7.40541L7.7303 7.39641L6.98289 6.73204ZM8.06591 5.51364H9.06591V2.88344L7.3185 4.84928L8.06591 5.51364ZM8.06591 6.01504H9.06591V6.01504H8.06591ZM8.41689 6.36602V5.36602V6.36602ZM8.76787 6.01504H7.76787V6.01504H8.76787ZM8.76787 4.63118L7.76797 4.617L7.76787 4.62409V4.63118H8.76787ZM8.41689 4.27017L8.43088 3.27017H8.41689V4.27017ZM7.0581 4.27017V3.27017H6.99907L6.94045 3.27712L7.0581 4.27017ZM7.92552 0.625H8.92552V-0.375H7.92552V0.625ZM4.07478 0.625V-0.375083L4.06192 -0.374917L4.07478 0.625ZM0.610107 4.13479H1.61011V4.13471L0.610107 4.13479ZM0.610107 7.8652L1.61011 7.86529V7.8652H0.610107ZM4.07478 11.375L4.06192 12.375H4.07478V11.375ZM7.92552 11.375V12.3751L7.93838 12.3749L7.92552 11.375ZM11.3902 7.8652H10.3902V7.86529L11.3902 7.8652ZM11.3902 4.14984L10.3902 4.14975V4.14984H11.3902ZM7.92552 0.640042H6.92552V1.62727L7.91266 1.63996L7.92552 0.640042ZM7.92552 1.33699L7.91657 2.33695C8.15135 2.33905 8.38341 2.38738 8.59951 2.47917L8.99047 1.55876L9.38143 0.638349C8.92357 0.44387 8.4319 0.34148 7.93447 0.337027L7.92552 1.33699ZM8.99047 1.55876L8.59951 2.47917C8.81561 2.57096 9.01151 2.70442 9.17603 2.87192L9.88947 2.1712L10.6029 1.47048C10.2543 1.11559 9.83928 0.832829 9.38143 0.638349L8.99047 1.55876ZM9.88947 2.1712L9.17603 2.87192C9.34055 3.03943 9.47047 3.2377 9.55836 3.45542L10.4856 3.08107L11.4129 2.70673C11.2267 2.24546 10.9515 1.82538 10.6029 1.47048L9.88947 2.1712ZM10.4856 3.08107L9.55836 3.45542C9.64625 3.67313 9.69039 3.90603 9.68827 4.1408L10.6882 4.14984L11.6882 4.15887C11.6927 3.66144 11.5992 3.16801 11.4129 2.70673L10.4856 3.08107ZM10.6882 4.14984H9.68823V7.88025H10.6882H11.6882V4.14984H10.6882ZM10.6882 7.88025L9.68827 7.88928C9.69039 8.12406 9.64625 8.35695 9.55836 8.57467L10.4856 8.94901L11.4129 9.32335C11.5992 8.86208 11.6927 8.36864 11.6882 7.87121L10.6882 7.88025ZM10.4856 8.94901L9.55836 8.57467C9.47047 8.79238 9.34055 8.99065 9.17603 9.15816L9.88947 9.85888L10.6029 10.5596C10.9515 10.2047 11.2267 9.78463 11.4129 9.32335L10.4856 8.94901ZM9.88947 9.85888L9.17603 9.15816C9.01151 9.32567 8.81561 9.45912 8.59951 9.55092L8.99047 10.4713L9.38143 11.3917C9.83928 11.1973 10.2543 10.9145 10.6029 10.5596L9.88947 9.85888ZM8.99047 10.4713L8.59951 9.55092C8.38341 9.64271 8.15135 9.69103 7.91657 9.69314L7.92552 10.6931L7.93447 11.6931C8.4319 11.6886 8.92357 11.5862 9.38143 11.3917L8.99047 10.4713ZM7.92552 10.6931V9.6931H4.07478V10.6931V11.6931H7.92552V10.6931ZM4.07478 10.6931L4.08373 9.69314C3.84895 9.69103 3.61689 9.64271 3.40079 9.55092L3.00983 10.4713L2.61887 11.3917C3.07672 11.5862 3.5684 11.6886 4.06582 11.6931L4.07478 10.6931ZM3.00983 10.4713L3.40079 9.55092C3.18469 9.45912 2.98878 9.32567 2.82426 9.15816L2.11083 9.85888L1.39739 10.5596C1.74596 10.9145 2.16102 11.1973 2.61887 11.3917L3.00983 10.4713ZM2.11083 9.85888L2.82426 9.15816C2.65974 8.99065 2.52983 8.79238 2.44194 8.57467L1.51465 8.94901L0.587358 9.32335C0.773572 9.78463 1.04882 10.2047 1.39739 10.5596L2.11083 9.85888ZM1.51465 8.94901L2.44194 8.57467C2.35405 8.35695 2.3099 8.12406 2.31203 7.88928L1.31207 7.88025L0.312107 7.87121C0.307614 8.36864 0.401144 8.86207 0.587358 9.32335L1.51465 8.94901ZM1.31207 7.88025H2.31207V4.14984H1.31207H0.312066V7.88025H1.31207ZM1.31207 4.14984L2.31203 4.1408C2.3099 3.90603 2.35405 3.67313 2.44194 3.45542L1.51465 3.08107L0.587358 2.70673C0.401144 3.16801 0.307614 3.66145 0.312107 4.15887L1.31207 4.14984ZM1.51465 3.08107L2.44194 3.45542C2.52983 3.2377 2.65974 3.03943 2.82426 2.87192L2.11083 2.1712L1.39739 1.47048C1.04882 1.82538 0.773572 2.24546 0.587358 2.70673L1.51465 3.08107ZM2.11083 2.1712L2.82426 2.87192C2.98878 2.70442 3.18469 2.57096 3.40079 2.47917L3.00983 1.55876L2.61887 0.638349C2.16102 0.832828 1.74596 1.11559 1.39739 1.47048L2.11083 2.1712ZM3.00983 1.55876L3.40079 2.47917C3.61689 2.38738 3.84895 2.33905 4.08373 2.33695L4.07478 1.33699L4.06582 0.337027C3.5684 0.34148 3.07672 0.44387 2.61887 0.638349L3.00983 1.55876ZM4.07478 1.33699V2.33699H7.92552V1.33699V0.336987H4.07478V1.33699ZM7.0581 5.01224V6.01224H7.61465V5.01224V4.01224H7.0581V5.01224ZM7.61465 5.01224L6.87713 4.33692L5.73394 5.5854L6.47146 6.26073L7.20899 6.93605L8.35218 5.68757L7.61465 5.01224ZM6.47146 6.26073L6.10783 5.32919C6.32876 5.24294 6.57405 5.24294 6.79499 5.32919L6.43135 6.26073L6.06772 7.19227C6.31444 7.28858 6.58837 7.28858 6.8351 7.19227L6.47146 6.26073ZM6.43135 6.26073L6.00278 5.35722C6.13199 5.29593 6.27324 5.26411 6.41631 5.26411V6.26411V7.26411C6.56979 7.26411 6.72131 7.22998 6.85992 7.16424L6.43135 6.26073ZM6.41631 6.26411V5.26411C6.55938 5.26411 6.70063 5.29593 6.82984 5.35722L6.40127 6.26073L5.9727 7.16424C6.11131 7.22998 6.26283 7.26411 6.41631 7.26411V6.26411ZM6.40127 6.26073L7.03186 5.48461L6.30985 4.89798L5.67925 5.67409L5.04866 6.4502L5.77068 7.03684L6.40127 6.26073ZM5.67925 5.67409L6.30142 4.8912C5.99146 4.64488 5.60759 4.51012 5.21168 4.50864L5.20794 5.50863L5.2042 6.50862C5.15075 6.50842 5.09893 6.49023 5.05709 6.45698L5.67925 5.67409ZM5.20794 5.50863L5.2152 4.50865C4.97644 4.50692 4.73991 4.55471 4.52056 4.64902L4.91551 5.56772L5.31047 6.48642C5.2758 6.50132 5.23841 6.50888 5.20068 6.5086L5.20794 5.50863ZM4.91551 5.56772L4.52056 4.64902C4.3012 4.74332 4.10379 4.88208 3.94077 5.05654L4.67144 5.73927L5.40211 6.422C5.37634 6.44958 5.34514 6.47151 5.31047 6.48642L4.91551 5.56772ZM4.67144 5.73927L3.95657 5.04001L2.83344 6.18822L3.54831 6.88748L4.26317 7.58674L5.38631 6.43853L4.67144 5.73927ZM3.54831 6.88748L2.82876 6.19303C2.5839 6.44674 2.44706 6.78558 2.44706 7.13818H3.44706H4.44706C4.44706 7.30372 4.38281 7.4628 4.26785 7.58192L3.54831 6.88748ZM3.44706 7.13818H2.44706C2.44706 7.49077 2.5839 7.82961 2.82876 8.08332L3.54831 7.38888L4.26785 6.69443C4.38281 6.81355 4.44706 6.97263 4.44706 7.13818H3.44706ZM3.54831 7.38888L2.81301 8.06662C2.93859 8.20286 3.09103 8.3116 3.26074 8.38597L3.66215 7.47007L4.06355 6.55417C4.14696 6.59073 4.22189 6.64417 4.2836 6.71113L3.54831 7.38888ZM3.66215 7.47007L3.26074 8.38597C3.43045 8.46035 3.61372 8.49875 3.79901 8.49875V7.49875V6.49875C3.89007 6.49875 3.98014 6.51762 4.06355 6.55417L3.66215 7.47007ZM3.79901 7.49875V8.49875C3.98429 8.49875 4.16756 8.46035 4.33727 8.38597L3.93587 7.47007L3.53446 6.55417C3.61787 6.51762 3.70795 6.49875 3.79901 6.49875V7.49875ZM3.93587 7.47007L4.33727 8.38597C4.50698 8.3116 4.65943 8.20286 4.785 8.06662L4.04971 7.38888L3.31441 6.71113C3.37613 6.64417 3.45105 6.59073 3.53446 6.55417L3.93587 7.47007ZM4.04971 7.38888L4.7706 8.08192L5.89373 6.91366L5.17284 6.22062L4.45195 5.52757L3.32881 6.69583L4.04971 7.38888ZM5.17284 6.22062L5.49102 7.16864C5.29595 7.23412 5.08483 7.23412 4.88976 7.16864L5.20794 6.22062L5.52612 5.27259C5.30827 5.19947 5.07251 5.19947 4.85466 5.27259L5.17284 6.22062ZM5.20794 6.22062V7.22062H5.23802V6.22062V5.22062H5.20794V6.22062ZM5.23802 6.22062L4.61006 6.99886L5.33709 7.5855L5.96505 6.80725L6.59301 6.02901L5.86598 5.44237L5.23802 6.22062ZM5.96505 6.80725L5.31775 7.56949C5.62947 7.8342 6.02544 7.97897 6.4344 7.97772L6.43135 6.97773L6.42831 5.97773C6.49571 5.97753 6.56098 6.00139 6.61235 6.04502L5.96505 6.80725ZM6.43135 6.97773L6.43737 7.97771C6.67946 7.97625 6.91862 7.92464 7.13977 7.82613L6.73286 6.91266L6.32595 5.99919C6.35724 5.98525 6.39108 5.97795 6.42533 5.97775L6.43135 6.97773ZM6.73286 6.91266L7.13977 7.82613C7.36091 7.72762 7.55924 7.58435 7.72225 7.40536L6.98289 6.73204L6.24354 6.05873C6.2666 6.0334 6.29466 6.01313 6.32595 5.99919L6.73286 6.91266ZM6.98289 6.73204L7.7303 7.39641L8.81332 6.17801L8.06591 5.51364L7.3185 4.84928L6.23548 6.06768L6.98289 6.73204ZM8.06591 5.51364H7.06591V6.01504H8.06591H9.06591V5.51364H8.06591ZM8.06591 6.01504L7.06591 6.01504C7.06591 6.19245 7.10086 6.36813 7.16875 6.53204L8.09263 6.14936L9.01651 5.76667C9.04913 5.84542 9.06591 5.92982 9.06591 6.01504H8.06591ZM8.09263 6.14936L7.16875 6.53204C7.23664 6.69595 7.33616 6.84488 7.46161 6.97033L8.16871 6.26322L8.87582 5.55612C8.93609 5.61638 8.98389 5.68793 9.01651 5.76667L8.09263 6.14936ZM8.16871 6.26322L7.46161 6.97033C7.58706 7.09578 7.73599 7.19529 7.8999 7.26318L8.28258 6.3393L8.66526 5.41542C8.74401 5.44804 8.81555 5.49585 8.87582 5.55612L8.16871 6.26322ZM8.28258 6.3393L7.8999 7.26318C8.06381 7.33108 8.23948 7.36602 8.41689 7.36602V6.36602V5.36602C8.50212 5.36602 8.58652 5.38281 8.66526 5.41542L8.28258 6.3393ZM8.41689 6.36602V7.36602C8.5943 7.36602 8.76998 7.33108 8.93389 7.26318L8.55121 6.3393L8.16852 5.41542C8.24727 5.38281 8.33167 5.36602 8.41689 5.36602V6.36602ZM8.55121 6.3393L8.93389 7.26318C9.09781 7.19529 9.24673 7.09577 9.37218 6.97033L8.66507 6.26322L7.95797 5.55612C8.01823 5.49585 8.08977 5.44804 8.16852 5.41542L8.55121 6.3393ZM8.66507 6.26322L9.37218 6.97033C9.49763 6.84488 9.59714 6.69595 9.66504 6.53204L8.74116 6.14936L7.81728 5.76667C7.84989 5.68793 7.8977 5.61638 7.95797 5.55612L8.66507 6.26322ZM8.74116 6.14936L9.66504 6.53204C9.73292 6.36814 9.76787 6.19246 9.76787 6.01504L8.76787 6.01504H7.76787C7.76787 5.9298 7.78466 5.84541 7.81728 5.76667L8.74116 6.14936ZM8.76787 6.01504H9.76787V4.63118H8.76787H7.76787V6.01504H8.76787ZM8.76787 4.63118L9.76777 4.64536C9.7703 4.46729 9.73772 4.29046 9.6719 4.12497L8.7427 4.49456L7.81351 4.86415C7.78225 4.78555 7.76677 4.70157 7.76797 4.617L8.76787 4.63118ZM8.7427 4.49456L9.6719 4.12497C9.60607 3.95948 9.5083 3.80858 9.38416 3.6809L8.66716 4.37798L7.95017 5.07505C7.89121 5.01441 7.84477 4.94275 7.81351 4.86415L8.7427 4.49456ZM8.66716 4.37798L9.38416 3.6809C9.26001 3.55321 9.11193 3.45122 8.94836 3.38076L8.55275 4.29918L8.15714 5.2176C8.07945 5.18414 8.00912 5.1357 7.95017 5.07505L8.66716 4.37798ZM8.55275 4.29918L8.94836 3.38076C8.78479 3.31031 8.60895 3.27276 8.43088 3.27027L8.41689 4.27017L8.40291 5.27007C8.31834 5.26889 8.23482 5.25106 8.15714 5.2176L8.55275 4.29918ZM8.41689 4.27017V3.27017H7.0581V4.27017V5.27017H8.41689V4.27017ZM7.0581 4.27017L6.94045 3.27712C6.60953 3.31632 6.3045 3.47557 6.08316 3.72468L6.8307 4.38889L7.57825 5.0531C7.47433 5.17005 7.33112 5.24482 7.17575 5.26323L7.0581 4.27017ZM6.8307 4.38889L6.08316 3.72468C5.86182 3.97378 5.73957 4.29544 5.73957 4.62867H6.73957H7.73957C7.73957 4.78513 7.68217 4.93614 7.57825 5.0531L6.8307 4.38889ZM6.73957 4.62867H5.73957C5.73957 4.96191 5.86182 5.28356 6.08316 5.53267L6.8307 4.86846L7.57825 4.20425C7.68217 4.3212 7.73957 4.47222 7.73957 4.62867H6.73957ZM6.8307 4.86846L6.08316 5.53267C6.3045 5.78178 6.60953 5.94102 6.94045 5.98023L7.0581 4.98717L7.17575 3.99412C7.33112 4.01252 7.47433 4.08729 7.57825 4.20425L6.8307 4.86846ZM7.92552 0.625V-0.375H4.07478V0.625V1.625H7.92552V0.625ZM4.07478 0.625L4.06192 -0.374917C2.87592 -0.359668 1.74368 0.122194 0.91043 0.966297L1.6221 1.66881L2.33376 2.37133C2.79749 1.90157 3.4276 1.6334 4.08763 1.62492L4.07478 0.625ZM1.6221 1.66881L0.91043 0.966297C0.0771795 1.8104 -0.389991 2.94878 -0.389893 4.13488L0.610107 4.13479L1.61011 4.13471C1.61005 3.47463 1.87004 2.84109 2.33376 2.37133L1.6221 1.66881ZM0.610107 4.13479H-0.389893V7.8652H0.610107H1.61011V4.13479H0.610107ZM0.610107 7.8652L-0.389893 7.86512C-0.389991 9.05122 0.0771794 10.1896 0.91043 11.0337L1.6221 10.3312L2.33376 9.62867C1.87004 9.15891 1.61005 8.52537 1.61011 7.86529L0.610107 7.8652ZM1.6221 10.3312L0.91043 11.0337C1.74368 11.8778 2.87592 12.3597 4.06192 12.3749L4.07478 11.375L4.08763 10.3751C3.4276 10.3666 2.79749 10.0984 2.33376 9.62867L1.6221 10.3312ZM4.07478 11.375V12.375H7.92552V11.375V10.375H4.07478V11.375ZM7.92552 11.375L7.93838 12.3749C9.12437 12.3597 10.2566 11.8778 11.0899 11.0337L10.3782 10.3312L9.66653 9.62867C9.20281 10.0984 8.5727 10.3666 7.91266 10.3751L7.92552 11.375ZM10.3782 10.3312L11.0899 11.0337C11.9231 10.1896 12.3903 9.05122 12.3902 7.86512L11.3902 7.8652L10.3902 7.86529C10.3902 8.52537 10.1303 9.15891 9.66653 9.62867L10.3782 10.3312ZM11.3902 7.8652H12.3902V4.14984H11.3902H10.3902V7.8652H11.3902ZM11.3902 4.14984L12.3902 4.14992C12.3903 2.96383 11.9231 1.82544 11.0899 0.981339L10.3782 1.68386L9.66653 2.38637C10.1303 2.85613 10.3902 3.48967 10.3902 4.14975L11.3902 4.14984ZM10.3782 1.68386L11.0899 0.981339C10.2566 0.137236 9.12437 -0.344626 7.93838 -0.359875L7.92552 0.640042L7.91266 1.63996C8.5727 1.64845 9.20281 1.91661 9.66653 2.38637L10.3782 1.68386ZM7.92552 0.640042H8.92552V0.625H7.92552H6.92552V0.640042H7.92552Z" fill="white" mask="url(#path-1-inside-1_94_2486)"/>
</g>
<defs>
<clipPath id="clip0_94_2486">
<rect width="12" height="12" fill="white"/>
</clipPath>
</defs>
</svg>
