<svg width="18" height="18" viewBox="0 0 18 18" fill="none" xmlns="http://www.w3.org/2000/svg">
<path opacity="0.3" d="M9 17.25C13.5563 17.25 17.25 13.5563 17.25 9C17.25 4.44365 13.5563 0.75 9 0.75C4.44365 0.75 0.75 4.44365 0.75 9C0.75 13.5563 4.44365 17.25 9 17.25Z" fill="#01BF73"/>
<path d="M8.761 12.0614L13.711 7.11139C13.7879 7.03447 13.8489 6.94315 13.8906 6.84265C13.9322 6.74214 13.9536 6.63443 13.9536 6.52564C13.9536 6.41686 13.9322 6.30914 13.8906 6.20864C13.8489 6.10813 13.7879 6.01681 13.711 5.93989C13.6341 5.86297 13.5428 5.80195 13.4423 5.76032C13.3418 5.71869 13.234 5.69727 13.1252 5.69727C13.0165 5.69727 12.9087 5.71869 12.8082 5.76032C12.7077 5.80195 12.6164 5.86297 12.5395 5.93989L8.17525 10.3124L5.461 7.58989C5.30565 7.43454 5.09495 7.34727 4.87525 7.34727C4.65555 7.34727 4.44485 7.43454 4.2895 7.58989C4.13415 7.74524 4.04688 7.95594 4.04688 8.17564C4.04687 8.39534 4.13415 8.60604 4.2895 8.76139L7.5895 12.0614C7.6662 12.1387 7.75744 12.2001 7.85797 12.242C7.95851 12.2839 8.06634 12.3054 8.17525 12.3054C8.28416 12.3054 8.39199 12.2839 8.49253 12.242C8.59306 12.2001 8.68431 12.1387 8.761 12.0614Z" fill="#01BF73"/>
</svg>
