<svg width="18" height="21" viewBox="0 0 18 21" fill="none" xmlns="http://www.w3.org/2000/svg">
<path opacity="0.3" d="M9 19.8398C13.5563 19.8398 17.25 16.1462 17.25 11.5898C17.25 7.03349 13.5563 3.33984 9 3.33984C4.44365 3.33984 0.75 7.03349 0.75 11.5898C0.75 16.1462 4.44365 19.8398 9 19.8398Z" fill="#01BF73"/>
<path d="M8.761 14.6512L13.711 9.70124C13.7879 9.62431 13.8489 9.53299 13.8906 9.43249C13.9322 9.33199 13.9536 9.22427 13.9536 9.11549C13.9536 9.0067 13.9322 8.89898 13.8906 8.79848C13.8489 8.69798 13.7879 8.60666 13.711 8.52974C13.6341 8.45281 13.5428 8.3918 13.4423 8.35017C13.3418 8.30854 13.234 8.28711 13.1252 8.28711C13.0165 8.28711 12.9087 8.30854 12.8082 8.35017C12.7077 8.3918 12.6164 8.45281 12.5395 8.52974L8.17525 12.9022L5.461 10.1797C5.30565 10.0244 5.09495 9.93711 4.87525 9.93711C4.65555 9.93711 4.44485 10.0244 4.2895 10.1797C4.13415 10.3351 4.04688 10.5458 4.04688 10.7655C4.04687 10.9852 4.13415 11.1959 4.2895 11.3512L7.5895 14.6512C7.6662 14.7286 7.75744 14.7899 7.85797 14.8318C7.95851 14.8737 8.06634 14.8953 8.17525 14.8953C8.28416 14.8953 8.39199 14.8737 8.49253 14.8318C8.59306 14.7899 8.68431 14.7286 8.761 14.6512Z" fill="#01BF73"/>
</svg>
