<svg width="20" height="20" viewBox="0 0 20 20" fill="none" xmlns="http://www.w3.org/2000/svg">
<path opacity="0.3" d="M13.607 1.04199H6.35095C4.78261 1.04199 3.51123 2.31338 3.51123 3.88171V9.97321C3.51123 11.5415 4.78261 12.8129 6.35095 12.8129H13.607C15.1753 12.8129 16.4467 11.5415 16.4467 9.97321V3.88171C16.4467 2.31338 15.1753 1.04199 13.607 1.04199Z" fill="black"/>
<path d="M5.54517 9.37305C5.98534 9.37344 6.42046 9.46966 6.81958 9.65527C7.21874 9.84093 7.57276 10.1118 7.85669 10.4482L8.11646 10.7617C8.34262 11.031 8.62486 11.2479 8.9436 11.3965C9.2624 11.5451 9.61044 11.6221 9.96216 11.6221C10.3137 11.622 10.6611 11.545 10.9797 11.3965C11.2984 11.2479 11.5807 11.031 11.8069 10.7617L12.0667 10.4482C12.3506 10.1118 12.7046 9.84093 13.1038 9.65527C13.5029 9.46962 13.938 9.37344 14.3782 9.37305H15.1213C15.9101 9.37305 16.6671 9.68639 17.2249 10.2441C17.7824 10.8018 18.0958 11.5581 18.0959 12.3467V15.375C18.096 15.8509 18.0006 16.3219 17.8167 16.7607C17.6327 17.1996 17.3631 17.5971 17.0237 17.9307C16.6843 18.2642 16.2821 18.5278 15.8401 18.7041C15.3982 18.8804 14.9252 18.9663 14.4495 18.958H5.49146C4.54139 18.9579 3.63015 18.5809 2.95825 17.9092C2.28627 17.2372 1.90846 16.3253 1.90845 15.375V12.3467C1.90839 11.5688 2.21293 10.8215 2.75708 10.2656C3.30127 9.70977 4.04186 9.38951 4.81958 9.37305H5.54517ZM11.0725 6.86523C11.2507 6.86525 11.4211 6.93652 11.5471 7.0625C11.6731 7.18849 11.7444 7.35894 11.7444 7.53711C11.7444 7.71528 11.6731 7.88573 11.5471 8.01172C11.4211 8.1377 11.2507 8.20897 11.0725 8.20898H8.76099C8.58289 8.20891 8.41231 8.13765 8.28638 8.01172C8.16046 7.88574 8.08912 7.71523 8.08911 7.53711C8.08911 7.35899 8.16047 7.18848 8.28638 7.0625C8.41231 6.93657 8.58289 6.8653 8.76099 6.86523H11.0725ZM11.9866 4.3291C12.1646 4.3292 12.3353 4.40046 12.4612 4.52637C12.5871 4.65235 12.6584 4.82288 12.6584 5.00098C12.6584 5.17907 12.5871 5.34961 12.4612 5.47559C12.3353 5.6015 12.1646 5.67275 11.9866 5.67285H7.95532C7.77713 5.67285 7.60573 5.60158 7.47974 5.47559C7.35396 5.34963 7.28345 5.17899 7.28345 5.00098C7.28345 4.82296 7.35397 4.65233 7.47974 4.52637C7.60573 4.40037 7.77713 4.3291 7.95532 4.3291H11.9866Z" fill="black"/>
</svg>
