<svg width="22" height="22" viewBox="0 0 22 22" fill="none" xmlns="http://www.w3.org/2000/svg">
<path opacity="0.3" d="M11.0001 21.0837C16.569 21.0837 21.0834 16.5692 21.0834 11.0003C21.0834 5.43145 16.569 0.916992 11.0001 0.916992C5.43121 0.916992 0.916748 5.43145 0.916748 11.0003C0.916748 16.5692 5.43121 21.0837 11.0001 21.0837Z" fill="#A594FD"/>
<path fill-rule="evenodd" clip-rule="evenodd" d="M11.7261 5.47515C12.5195 5.45582 13.3066 5.621 14.0249 5.95855C14.5795 6.25097 15.2655 6.70518 15.3159 7.40093C15.324 7.56577 15.2914 7.73012 15.2212 7.87945C15.1509 8.0288 15.0448 8.1585 14.9126 8.25738C14.8423 8.32269 14.7599 8.37415 14.6704 8.40875C14.567 8.44 14.4584 8.4501 14.3511 8.43804C14.2436 8.42591 14.1393 8.39199 14.0454 8.33843C13.6824 8.14685 13.4602 7.79367 13.1274 7.57183C12.7113 7.29214 12.2174 7.15088 11.7163 7.16851C11.3055 7.15338 10.8968 7.23732 10.5249 7.41265C10.1529 7.58811 9.82832 7.85052 9.57861 8.1773C9.41505 8.41687 9.27655 8.67033 9.16162 8.93316H13.1675C13.2775 8.92064 13.3891 8.93187 13.4946 8.96539C13.6002 8.99894 13.6981 9.0547 13.7808 9.12847C13.8631 9.20211 13.9289 9.2923 13.9741 9.39312C14.0193 9.49412 14.0434 9.60375 14.0435 9.71441C14.0435 9.8252 14.0194 9.93556 13.9741 10.0367C13.9289 10.1375 13.8631 10.2277 13.7808 10.3013C13.6981 10.3751 13.6002 10.4309 13.4946 10.4644C13.3891 10.4979 13.2775 10.5092 13.1675 10.4966H8.78174C8.76957 10.6903 8.76931 10.8853 8.78174 11.0806C8.77668 11.222 8.77832 11.3636 8.78467 11.5044H12.3911C12.4939 11.5044 12.5961 11.5253 12.6909 11.565C12.7857 11.6046 12.8717 11.6628 12.9438 11.7359C13.016 11.809 13.0734 11.8955 13.1118 11.9908C13.1502 12.086 13.1687 12.188 13.1675 12.2906H13.1372C13.1372 12.4965 13.0553 12.6948 12.9097 12.8404C12.7641 12.9858 12.5666 13.0679 12.3608 13.0679H9.09814C9.11036 13.1014 9.12137 13.1353 9.13428 13.1685C9.33131 13.6778 9.68468 14.1119 10.1431 14.4087C10.593 14.6893 11.1149 14.8327 11.645 14.8218C12.213 14.838 12.7719 14.6722 13.2388 14.3482C13.6824 14.0356 13.9948 13.3899 14.5796 13.3394C14.7503 13.3201 14.9234 13.3414 15.0845 13.4009C15.2454 13.4604 15.3903 13.5567 15.5073 13.6822C15.6198 13.805 15.6909 13.961 15.7095 14.1265C15.7075 14.3477 15.6538 14.5657 15.5542 14.7632C15.4546 14.9606 15.3109 15.1322 15.1343 15.2652C14.7443 15.6707 14.2733 15.9909 13.7524 16.2037C13.1108 16.4552 12.4248 16.5749 11.7358 16.5562C11.2173 16.5628 10.6998 16.5088 10.1938 16.3951C9.74548 16.2987 9.31581 16.1284 8.92334 15.8912C8.56671 15.654 8.24687 15.3648 7.9751 15.0337C7.68723 14.6891 7.44359 14.3098 7.24951 13.9048C7.12485 13.6338 7.02126 13.3534 6.93604 13.0679H5.51416C5.32248 13.0461 5.14566 12.9539 5.01709 12.8101C4.88843 12.666 4.81689 12.4789 4.81689 12.2857C4.81697 12.0926 4.8885 11.9063 5.01709 11.7623C5.14566 11.6183 5.32241 11.5263 5.51416 11.5044H6.6333C6.61832 11.3369 6.60731 11.1689 6.604 11.0005C6.60076 10.8323 6.60537 10.6642 6.61475 10.4966H5.51416C5.32247 10.4748 5.14566 10.3827 5.01709 10.2388C4.88843 10.0947 4.81689 9.90761 4.81689 9.71441C4.81698 9.52134 4.88851 9.33501 5.01709 9.19097C5.14566 9.04706 5.32242 8.95505 5.51416 8.93316H6.88916C6.91362 8.85216 6.93876 8.77111 6.96631 8.69097C7.20651 8.04503 7.58176 7.45778 8.06592 6.96734C8.52844 6.48468 9.08881 6.10629 9.70947 5.85797C10.3496 5.59759 11.0351 5.46769 11.7261 5.47515Z" fill="#A594FD"/>
</svg>
