<svg width="22" height="22" viewBox="0 0 22 22" fill="none" xmlns="http://www.w3.org/2000/svg">
<path opacity="0.3" d="M16.7085 2.18449C15.8034 1.86864 14.838 1.76368 13.8861 1.87764C12.9343 1.9916 12.021 2.32145 11.216 2.84205C11.0852 2.92774 10.9323 2.97339 10.776 2.97339C10.6197 2.97339 10.4668 2.92774 10.336 2.84205C9.59659 2.36488 8.76508 2.04856 7.89546 1.91362C7.02585 1.77868 6.13758 1.82814 5.28832 2.05878C4.03298 2.39203 2.92332 3.13158 2.1326 4.16196C1.34189 5.19234 0.914615 6.45556 0.917507 7.75437C0.820807 14.446 7.74448 18.1012 10.0363 19.1456C10.2689 19.2517 10.5204 19.3106 10.776 19.3189C11.0316 19.3272 11.2863 19.2847 11.5254 19.1939C13.8075 18.3139 20.4991 15.1422 20.6248 7.67701C20.6078 6.47192 20.2239 5.30064 19.5242 4.31933C18.8245 3.33803 17.8423 2.59332 16.7085 2.18449Z" fill="#A594FD"/>
<path d="M16.7088 2.18449C15.8036 1.86864 14.8383 1.76368 13.8864 1.87764C12.9345 1.9916 12.0213 2.32145 11.2162 2.84205C11.0855 2.92774 10.9326 2.97339 10.7763 2.97339C10.6199 2.97339 10.467 2.92774 10.3363 2.84205C9.59686 2.36488 8.76535 2.04856 7.89573 1.91362C7.02611 1.77868 6.13784 1.82814 5.28858 2.05878C4.03324 2.39203 2.92359 3.13158 2.13287 4.16196C1.34215 5.19234 0.914882 6.45556 0.917773 7.75437C0.91267 8.40362 0.974236 9.05168 1.1015 9.68836H20.4414C20.5645 9.02501 20.626 8.35169 20.6251 7.67701C20.6081 6.47192 20.2241 5.30064 19.5244 4.31933C18.8247 3.33803 17.8425 2.59332 16.7088 2.18449Z" fill="#A594FD"/>
</svg>
