<svg width="22" height="22" viewBox="0 0 22 22" fill="none" xmlns="http://www.w3.org/2000/svg">
<path opacity="0.3" d="M16.4498 12.5862C16.2546 12.5836 16.0681 12.505 15.93 12.3669C15.792 12.2289 15.7133 12.0424 15.7107 11.8471V6.48647C15.7107 5.45937 15.3027 4.47433 14.5764 3.74806C13.8502 3.02179 12.8651 2.61378 11.838 2.61378H10.1628C9.13572 2.61378 8.15069 3.02179 7.42442 3.74806C6.69815 4.47433 6.29014 5.45937 6.29014 6.48647V11.8471C6.29014 12.0431 6.21227 12.2311 6.07367 12.3697C5.93507 12.5083 5.74709 12.5862 5.55107 12.5862C5.35506 12.5862 5.16708 12.5083 5.02848 12.3697C4.88988 12.2311 4.81201 12.0431 4.81201 11.8471V6.48647C4.81722 5.06985 5.38295 3.71289 6.38557 2.71211C7.3882 1.71133 8.7462 1.1481 10.1628 1.14551H11.838C13.2564 1.14811 14.6158 1.71269 15.6188 2.7156C16.6217 3.71851 17.1862 5.078 17.1888 6.49632V11.857C17.1863 12.0513 17.1072 12.2367 16.9689 12.3732C16.8306 12.5097 16.6441 12.5862 16.4498 12.5862Z" fill="#A594FD"/>
<path d="M17.0015 8.4873C18.0233 8.48734 19.0035 8.89366 19.7261 9.61621C20.4483 10.3386 20.8539 11.3183 20.854 12.3398V17.0107C20.8514 18.0309 20.4445 19.009 19.7222 19.7295C18.9999 20.4498 18.0215 20.8545 17.0015 20.8545H4.99854C3.97854 20.8544 3.00002 20.4498 2.27783 19.7295C1.55554 19.009 1.14861 18.0309 1.146 17.0107V12.3398C1.14611 11.3181 1.55243 10.3387 2.2749 9.61621C2.99737 8.89374 3.97682 8.48742 4.99854 8.4873H17.0015ZM12.1802 11.8262C11.6167 11.5928 10.9962 11.5314 10.3979 11.6504C9.79981 11.7695 9.2501 12.0639 8.81885 12.4951C8.38769 12.9264 8.09408 13.4761 7.9751 14.0742C7.85614 14.6725 7.91746 15.2929 8.15088 15.8564C8.38435 16.4198 8.77953 16.9014 9.28662 17.2402C9.79384 17.5791 10.3905 17.7598 11.0005 17.7598C11.8184 17.7597 12.6028 17.4348 13.1812 16.8564C13.7595 16.278 14.0845 15.4937 14.0845 14.6758C14.0845 14.0658 13.9039 13.4691 13.5649 12.9619C13.226 12.4547 12.7437 12.0596 12.1802 11.8262ZM11.0005 13.0693C11.8875 13.0695 12.6069 13.7888 12.6069 14.6758C12.6069 15.5628 11.8875 16.2821 11.0005 16.2822C10.1134 16.2822 9.39408 15.5628 9.39404 14.6758C9.39404 13.7887 10.1134 13.0693 11.0005 13.0693Z" fill="#A594FD"/>
</svg>
