<svg width="12" height="12" viewBox="0 0 12 12" fill="none" xmlns="http://www.w3.org/2000/svg">
<path d="M8.75008 9.5H4.50008C3.85101 9.49983 3.21478 9.31918 2.66247 8.97824C2.11016 8.63729 1.66354 8.14947 1.37252 7.56931C1.08149 6.98914 0.957527 6.33948 1.01448 5.69291C1.07143 5.04635 1.30704 4.42835 1.695 3.90799C2.08296 3.38763 2.60798 2.9854 3.21138 2.74624C3.81478 2.50709 4.4728 2.44044 5.11191 2.55373C5.75101 2.66703 6.34602 2.95581 6.83045 3.3878C7.31487 3.8198 7.66963 4.37799 7.85508 5H8.75008C9.34682 5 9.91911 5.23705 10.3411 5.65901C10.763 6.08097 11.0001 6.65326 11.0001 7.25C11.0001 7.84674 10.763 8.41903 10.3411 8.84099C9.91911 9.26295 9.34682 9.5 8.75008 9.5Z" stroke="white" stroke-linecap="round" stroke-linejoin="round"/>
</svg>
