<svg width="16" height="16" viewBox="0 0 16 16" fill="none" xmlns="http://www.w3.org/2000/svg">
<g clip-path="url(#clip0_88_2464)">
<path d="M0.516113 6.93977C0.516113 4.77577 0.516113 3.69477 0.937113 2.86777C1.30729 2.14087 1.89822 1.54994 2.62511 1.17977C3.45111 0.759766 4.53311 0.759766 6.69611 0.759766H9.30411C11.4671 0.759766 12.5491 0.759766 13.3741 1.17977C14.1021 1.54977 14.6931 2.14177 15.0631 2.86777C15.4831 3.69477 15.4831 4.77577 15.4831 6.93977V9.54677C15.4831 11.7098 15.4831 12.7918 15.0631 13.6178C14.6929 14.3447 14.102 14.9356 13.3751 15.3058C12.5491 15.7268 11.4671 15.7268 9.30411 15.7268H6.69611C4.53311 15.7268 3.45111 15.7268 2.62611 15.3058C1.89885 14.9358 1.30755 14.3448 0.937113 13.6178C0.517113 12.7918 0.517113 11.7098 0.517113 9.54677L0.516113 6.93977Z" fill="url(#paint0_linear_88_2464)"/>
<path d="M7.997 12.2432C8.383 12.2432 8.639 11.9812 8.639 11.5532V5.42416H11.437C11.76 5.42416 12 5.19016 12 4.83116C12 4.47716 11.765 4.24316 11.437 4.24316H4.563C4.235 4.24316 4 4.47716 4 4.83116C4 5.19116 4.235 5.42416 4.563 5.42416H7.361V11.5532C7.361 11.9812 7.606 12.2432 7.997 12.2432Z" fill="white"/>
<path d="M12 4.74316C12 4.46702 11.7761 4.24316 11.5 4.24316C11.2239 4.24316 11 4.46702 11 4.74316V6.74316C11 7.01931 11.2239 7.24316 11.5 7.24316C11.7761 7.24316 12 7.01931 12 6.74316V4.74316Z" fill="white"/>
<path d="M9.5 12.2432C9.77614 12.2432 10 12.0193 10 11.7432C10 11.467 9.77614 11.2432 9.5 11.2432H6.5C6.22386 11.2432 6 11.467 6 11.7432C6 12.0193 6.22386 12.2432 6.5 12.2432H9.5Z" fill="white"/>
<path d="M5 4.74316C5 4.46702 4.77614 4.24316 4.5 4.24316C4.22386 4.24316 4 4.46702 4 4.74316V6.74316C4 7.01931 4.22386 7.24316 4.5 7.24316C4.77614 7.24316 5 7.01931 5 6.74316V4.74316Z" fill="white"/>
</g>
<defs>
<linearGradient id="paint0_linear_88_2464" x1="0.516113" y1="0.758766" x2="15.4841" y2="15.7268" gradientUnits="userSpaceOnUse">
<stop stop-color="#9563FF"/>
<stop offset="1" stop-color="#2A2AD7"/>
</linearGradient>
<clipPath id="clip0_88_2464">
<rect width="16" height="16" fill="white"/>
</clipPath>
</defs>
</svg>
