<svg width="34" height="34" viewBox="0 0 34 34" fill="none" xmlns="http://www.w3.org/2000/svg">
<g clip-path="url(#clip0_45_564)">
<path d="M29.5537 11.769H14.9075C13.1742 11.769 11.769 13.1742 11.769 14.9075V29.5537C11.769 31.287 13.1742 32.6921 14.9075 32.6921H29.5537C31.287 32.6921 32.6921 31.287 32.6921 29.5537V14.9075C32.6921 13.1742 31.287 11.769 29.5537 11.769Z" fill="url(#paint0_linear_45_564)" fill-opacity="0.24" stroke="white" stroke-width="1.30769"/>
<path opacity="0.2" d="M9.67704 27.4612C8.84466 27.4612 8.04638 27.1304 7.4578 26.542C6.86924 25.9534 6.53857 25.155 6.53857 24.3227V9.67655C6.53857 8.84417 6.86924 8.04589 7.4578 7.45732C8.04638 6.86875 8.84466 6.53809 9.67704 6.53809H24.3232C25.1555 6.53809 25.9539 6.86875 26.5425 7.45732C27.1309 8.04589 27.4617 8.84417 27.4617 9.67655" stroke="white" stroke-width="1.30769"/>
<path opacity="0.2" d="M4.44608 22.2307C3.61371 22.2307 2.81543 21.9 2.22685 21.3115C1.63828 20.7229 1.30762 19.9246 1.30762 19.0922V4.44608C1.30762 3.61371 1.63828 2.81543 2.22685 2.22685C2.81543 1.63828 3.61371 1.30762 4.44608 1.30762H19.0922C19.9246 1.30762 20.7229 1.63828 21.3115 2.22685C21.9 2.81543 22.2307 3.61371 22.2307 4.44608" stroke="white" stroke-width="1.30769"/>
</g>
<defs>
<linearGradient id="paint0_linear_45_564" x1="22.2306" y1="11.769" x2="22.2306" y2="32.6921" gradientUnits="userSpaceOnUse">
<stop stop-color="white" stop-opacity="0"/>
<stop offset="1" stop-color="white"/>
</linearGradient>
<clipPath id="clip0_45_564">
<rect width="34" height="34" fill="white"/>
</clipPath>
</defs>
</svg>
