<svg width="34" height="34" viewBox="0 0 34 34" fill="none" xmlns="http://www.w3.org/2000/svg">
<g clip-path="url(#clip0_45_569)">
<path d="M17 30.8125C24.6284 30.8125 30.8125 24.6284 30.8125 17C30.8125 9.37157 24.6284 3.1875 17 3.1875C9.37157 3.1875 3.1875 9.37157 3.1875 17C3.1875 24.6284 9.37157 30.8125 17 30.8125Z" fill="url(#paint0_linear_45_569)" fill-opacity="0.24" stroke="white" stroke-width="1.0625" stroke-linecap="round" stroke-linejoin="round"/>
<path opacity="0.4" d="M17 14.875C17.5635 14.875 18.104 15.0989 18.5026 15.4974C18.9011 15.896 19.125 16.4365 19.125 17C19.125 17.5635 18.9011 18.104 18.5026 18.5026C18.104 18.9011 17.5635 19.125 17 19.125C16.4365 19.125 15.896 18.9011 15.4974 18.5026C15.0989 18.104 14.875 17.5635 14.875 17C14.875 16.4365 15.0989 15.896 15.4974 15.4974C15.896 15.0989 16.4365 14.875 17 14.875Z" fill="#030014" stroke="white" stroke-width="1.0625" stroke-linecap="round" stroke-linejoin="round"/>
<path d="M17 1.0625C17.5635 1.0625 18.104 1.28638 18.5026 1.6849C18.9011 2.08341 19.125 2.62392 19.125 3.1875C19.125 3.75108 18.9011 4.29159 18.5026 4.6901C18.104 5.08862 17.5635 5.3125 17 5.3125C16.4365 5.3125 15.896 5.08862 15.4974 4.6901C15.0989 4.29159 14.875 3.75108 14.875 3.1875C14.875 2.62392 15.0989 2.08341 15.4974 1.6849C15.896 1.28638 16.4365 1.0625 17 1.0625ZM17 28.6875C17.5635 28.6875 18.104 28.9114 18.5026 29.3099C18.9011 29.7085 19.125 30.249 19.125 30.8125C19.125 31.376 18.9011 31.9165 18.5026 32.3151C18.104 32.7136 17.5635 32.9375 17 32.9375C16.4365 32.9375 15.896 32.7136 15.4974 32.3151C15.0989 31.9165 14.875 31.376 14.875 30.8125C14.875 30.249 15.0989 29.7085 15.4974 29.3099C15.896 28.9114 16.4365 28.6875 17 28.6875ZM30.8125 14.875C31.376 14.875 31.9165 15.0989 32.3151 15.4974C32.7136 15.896 32.9375 16.4365 32.9375 17C32.9375 17.5635 32.7136 18.104 32.3151 18.5026C31.9165 18.9011 31.376 19.125 30.8125 19.125C30.249 19.125 29.7085 18.9011 29.3099 18.5026C28.9114 18.104 28.6875 17.5635 28.6875 17C28.6875 16.4365 28.9114 15.896 29.3099 15.4974C29.7085 15.0989 30.249 14.875 30.8125 14.875ZM3.1875 14.875C3.75108 14.875 4.29159 15.0989 4.6901 15.4974C5.08862 15.896 5.3125 16.4365 5.3125 17C5.3125 17.5635 5.08862 18.104 4.6901 18.5026C4.29159 18.9011 3.75108 19.125 3.1875 19.125C2.62392 19.125 2.08341 18.9011 1.6849 18.5026C1.28638 18.104 1.0625 17.5635 1.0625 17C1.0625 16.4365 1.28638 15.896 1.6849 15.4974C2.08341 15.0989 2.62392 14.875 3.1875 14.875Z" fill="#030014" stroke="white" stroke-width="1.0625" stroke-linecap="round" stroke-linejoin="round"/>
</g>
<defs>
<linearGradient id="paint0_linear_45_569" x1="17" y1="3.1875" x2="17" y2="30.8125" gradientUnits="userSpaceOnUse">
<stop stop-color="white" stop-opacity="0"/>
<stop offset="1" stop-color="white"/>
</linearGradient>
<clipPath id="clip0_45_569">
<rect width="34" height="34" fill="white"/>
</clipPath>
</defs>
</svg>
