<svg width="22" height="22" viewBox="0 0 22 22" fill="none" xmlns="http://www.w3.org/2000/svg">
<path d="M15.3747 3.62109H6.61454C5.80721 3.62098 5.03215 3.93804 4.45638 4.50395C3.8806 5.06987 3.5502 5.83934 3.53638 6.64655V15.4067C3.53638 16.2231 3.86068 17.006 4.43795 17.5833C5.01522 18.1605 5.79816 18.4848 6.61454 18.4848H15.3747C16.191 18.4848 16.974 18.1605 17.5513 17.5833C18.1285 17.006 18.4528 16.2231 18.4528 15.4067V6.64655C18.439 5.83934 18.1086 5.06987 17.5328 4.50395C16.9571 3.93804 16.182 3.62098 15.3747 3.62109ZM14.7 13.2773C14.6862 13.6883 14.5118 14.0776 14.2142 14.3614C13.9165 14.6452 13.5194 14.801 13.1082 14.7953H8.67017C8.25359 14.7953 7.85407 14.6298 7.55951 14.3352C7.26494 14.0406 7.09946 13.6411 7.09946 13.2246V8.76543C7.09946 8.34885 7.26494 7.94933 7.55951 7.65477C7.85407 7.3602 8.25359 7.19472 8.67017 7.19472H13.1082C13.5248 7.19472 13.9243 7.3602 14.2189 7.65477C14.5134 7.94933 14.6789 8.34885 14.6789 8.76543L14.7 13.2773Z" fill="#A594FD"/>
<path opacity="0.3" d="M9.64087 16.355V20.73C9.6381 20.9462 9.54965 21.1532 9.39575 21.3052C9.24197 21.4569 9.0346 21.5414 8.8186 21.5415C8.60336 21.5415 8.3966 21.4564 8.24438 21.3042C8.09216 21.152 8.0061 20.9453 8.0061 20.73V16.355H9.64087ZM13.9836 20.73C13.9836 20.9453 13.8976 21.152 13.7454 21.3042C13.5931 21.4564 13.3864 21.5415 13.1711 21.5415C12.9561 21.5414 12.75 21.4562 12.5979 21.3042C12.4457 21.152 12.3596 20.9453 12.3596 20.73V16.355H13.9836V20.73ZM6.06665 13.9829H1.26978C1.05474 13.9828 0.848666 13.8976 0.696533 13.7456C0.544308 13.5934 0.458252 13.3867 0.458252 13.1714C0.45828 12.9561 0.544333 12.7494 0.696533 12.5972C0.848656 12.4453 1.05478 12.3599 1.26978 12.3599H6.06665V13.9829ZM20.7297 12.3599C20.9449 12.3599 21.1518 12.4451 21.304 12.5972C21.4562 12.7494 21.5422 12.9561 21.5422 13.1714C21.5422 13.3867 21.4562 13.5934 21.304 13.7456C21.1517 13.8977 20.945 13.9829 20.7297 13.9829H16.2073V12.3599H20.7297ZM6.06665 9.64014H1.26978C1.05367 9.63729 0.847414 9.54978 0.695557 9.396C0.543627 9.24209 0.458234 9.03413 0.458252 8.81787C0.458344 8.60272 0.54439 8.39677 0.696533 8.24463C0.848691 8.09249 1.05461 8.00642 1.26978 8.00635H6.06665V9.64014ZM20.7297 8.00635C20.945 8.00635 21.1517 8.0924 21.304 8.24463C21.456 8.39676 21.5421 8.60278 21.5422 8.81787C21.5423 9.03409 21.4568 9.2421 21.3049 9.396C21.153 9.5499 20.946 9.63736 20.7297 9.64014H16.2073V8.00635H20.7297ZM8.8186 0.458496C9.03475 0.458561 9.24192 0.543946 9.39575 0.695801C9.54961 0.847721 9.63809 1.05381 9.64087 1.27002V5.729H8.0061V1.28076C8.00471 1.17328 8.02551 1.06601 8.06567 0.966309C8.10584 0.866795 8.16509 0.776079 8.24048 0.699707C8.31599 0.623219 8.40596 0.562446 8.50513 0.520996C8.6043 0.479546 8.71112 0.458487 8.8186 0.458496ZM13.1711 0.458496C13.3863 0.458496 13.5932 0.543692 13.7454 0.695801C13.8976 0.84802 13.9836 1.05475 13.9836 1.27002V5.729H12.3596V1.27002C12.3596 1.05475 12.4457 0.84802 12.5979 0.695801C12.75 0.543861 12.9561 0.458588 13.1711 0.458496Z" fill="#A594FD"/>
</svg>
