<svg width="11" height="15" viewBox="0 0 11 15" fill="none" xmlns="http://www.w3.org/2000/svg">
<path d="M8.30287 3.92664C9.6395 5.20758 10.3078 5.84805 10.5356 6.60098C10.707 7.16747 10.707 7.77199 10.5356 8.33847C10.3078 9.09141 9.63949 9.73188 8.30286 11.0128C5.58948 13.6131 4.23279 14.9133 3.06555 14.9388C2.20233 14.9577 1.37284 14.6037 0.789198 13.9674C2.56267e-07 13.107 3.38405e-07 11.2279 5.02682e-07 7.46973C6.6696e-07 3.71151 7.49098e-07 1.83241 0.789198 0.972026C1.37284 0.33574 2.20234 -0.0182304 3.06555 0.000635624C4.23279 0.0261464 5.58948 1.32631 8.30287 3.92664Z" fill="#101010"/>
</svg>
