<svg width="19" height="19" viewBox="0 0 19 19" fill="none" xmlns="http://www.w3.org/2000/svg">
<g clip-path="url(#clip0_186_4)">
<path d="M18.3165 0.00842285H0V18.3249H18.3165V0.00842285Z" fill="#F5F5F5"/>
<path d="M18.3333 0.00842285H0V1.41708H18.3333V0.00842285Z" fill="#FF4B55"/>
<path d="M18.3333 5.64429H0V7.05295H18.3333V5.64429Z" fill="#FF4B55"/>
<path d="M18.3333 2.82648H0V4.23514H18.3333V2.82648Z" fill="#FF4B55"/>
<path d="M18.3333 8.46198H0V9.87063H18.3333V8.46198Z" fill="#FF4B55"/>
<path d="M18.3333 14.0977H0V15.5063H18.3333V14.0977Z" fill="#FF4B55"/>
<path d="M18.3333 16.9157H0V18.3244H18.3333V16.9157Z" fill="#FF4B55"/>
<path d="M18.3333 11.28H0V12.6887H18.3333V11.28Z" fill="#FF4B55"/>
<path d="M9.86276 0.00842285H0V9.87118H9.86276V0.00842285Z" fill="#41479B"/>
<path d="M1.26094 0.745334L1.33692 0.973212L1.57712 0.975074C1.6082 0.975325 1.62113 1.015 1.5961 1.03348L1.40288 1.17617L1.47532 1.40519C1.4847 1.43484 1.45097 1.45937 1.42562 1.44128L1.23018 1.3016L1.03475 1.44128C1.00947 1.4594 0.9757 1.43484 0.985046 1.40519L1.05748 1.17617L0.864268 1.03348C0.839274 1.015 0.852129 0.975325 0.883245 0.975074L1.12344 0.973212L1.19942 0.745334C1.20938 0.715829 1.25113 0.715829 1.26094 0.745334Z" fill="#F5F5F5"/>
<path d="M1.26094 2.64624L1.33692 2.87412L1.57712 2.87598C1.6082 2.87623 1.62113 2.9159 1.5961 2.93438L1.40288 3.07707L1.47532 3.3061C1.4847 3.33575 1.45097 3.36027 1.42562 3.34219L1.23018 3.20251L1.03475 3.34219C1.00947 3.36031 0.9757 3.33575 0.985046 3.3061L1.05748 3.07707L0.864268 2.93438C0.839274 2.9159 0.852129 2.87623 0.883245 2.87598L1.12344 2.87412L1.19942 2.64624C1.20938 2.6167 1.25113 2.6167 1.26094 2.64624Z" fill="#F5F5F5"/>
<path d="M1.26094 4.75449L1.33692 4.98237L1.57712 4.98423C1.6082 4.98448 1.62113 5.02415 1.5961 5.04267L1.40288 5.18536L1.47532 5.41438C1.4847 5.44403 1.45097 5.46856 1.42562 5.45048L1.23018 5.31079L1.03475 5.45048C1.00947 5.46859 0.9757 5.44403 0.985046 5.41438L1.05748 5.18536L0.864268 5.04267C0.839274 5.02419 0.852129 4.98448 0.883245 4.98423L1.12344 4.98237L1.19942 4.75449C1.20938 4.72498 1.25113 4.72498 1.26094 4.75449Z" fill="#F5F5F5"/>
<path d="M1.26094 6.69156L1.33692 6.91944L1.57712 6.9213C1.6082 6.92155 1.62113 6.96123 1.5961 6.9797L1.40288 7.1224L1.47532 7.35142C1.4847 7.38107 1.45097 7.4056 1.42562 7.38751L1.23018 7.24783L1.03475 7.38751C1.00947 7.40563 0.9757 7.38107 0.985046 7.35142L1.05748 7.1224L0.864268 6.9797C0.839274 6.96123 0.852129 6.92155 0.883245 6.9213L1.12344 6.91944L1.19942 6.69156C1.20938 6.66206 1.25113 6.66206 1.26094 6.69156Z" fill="#F5F5F5"/>
<path d="M1.26094 8.4542L1.33692 8.68207L1.57712 8.68394C1.6082 8.68419 1.62113 8.72386 1.5961 8.74234L1.40288 8.88503L1.47532 9.11405C1.4847 9.1437 1.45097 9.16823 1.42562 9.15015L1.23018 9.01046L1.03475 9.15015C1.00947 9.16827 0.9757 9.1437 0.985046 9.11405L1.05748 8.88503L0.864268 8.74234C0.839274 8.72386 0.852129 8.68415 0.883245 8.68394L1.12344 8.68207L1.19942 8.4542C1.20938 8.42469 1.25113 8.42469 1.26094 8.4542Z" fill="#F5F5F5"/>
<path d="M2.18623 1.64548L2.26222 1.87336L2.50241 1.87522C2.53349 1.87547 2.54642 1.91515 2.52139 1.93362L2.32817 2.07631L2.40061 2.30534C2.40999 2.33499 2.37626 2.35951 2.35091 2.34143L2.15548 2.20175L1.96004 2.34143C1.93476 2.35955 1.90099 2.33499 1.91034 2.30534L1.98278 2.07631L1.78956 1.93362C1.76457 1.91515 1.77742 1.87547 1.80854 1.87522L2.04873 1.87336L2.12472 1.64548C2.13467 1.61598 2.17642 1.61598 2.18623 1.64548Z" fill="#F5F5F5"/>
<path d="M2.18623 3.75376L2.26222 3.98163L2.50241 3.9835C2.53349 3.98375 2.54642 4.02342 2.52139 4.0419L2.32817 4.18459L2.40061 4.41361C2.40999 4.44326 2.37626 4.46779 2.35091 4.44971L2.15548 4.31002L1.96004 4.44971C1.93476 4.46783 1.90099 4.44326 1.91034 4.41361L1.98278 4.18459L1.78956 4.0419C1.76457 4.02342 1.77742 3.98375 1.80854 3.9835L2.04873 3.98163L2.12472 3.75376C2.13467 3.72425 2.17642 3.72425 2.18623 3.75376Z" fill="#F5F5F5"/>
<path d="M2.18623 5.75678L2.26222 5.98466L2.50241 5.98652C2.53349 5.98677 2.54642 6.02645 2.52139 6.04492L2.32817 6.18762L2.40061 6.41664C2.40999 6.44629 2.37626 6.47082 2.35091 6.45273L2.15548 6.31305L1.96004 6.45273C1.93476 6.47085 1.90099 6.44629 1.91034 6.41664L1.98278 6.18762L1.78956 6.04492C1.76457 6.02645 1.77742 5.98677 1.80854 5.98652L2.04873 5.98466L2.12472 5.75678C2.13467 5.72731 2.17642 5.72731 2.18623 5.75678Z" fill="#F5F5F5"/>
<path d="M2.18623 7.5556L2.26222 7.78348L2.50241 7.78534C2.53349 7.78559 2.54642 7.82527 2.52139 7.84374L2.32817 7.98644L2.40061 8.21546C2.40999 8.24511 2.37626 8.26964 2.35091 8.25155L2.15548 8.11187L1.96004 8.25155C1.93476 8.26967 1.90099 8.24511 1.91034 8.21546L1.98278 7.98644L1.78956 7.84374C1.76457 7.82527 1.77742 7.78559 1.80854 7.78534L2.04873 7.78348L2.12472 7.5556C2.13467 7.52606 2.17642 7.52606 2.18623 7.5556Z" fill="#F5F5F5"/>
<path d="M3.11153 0.745334L3.18751 0.973212L3.4277 0.975074C3.45879 0.975325 3.47171 1.015 3.44668 1.03348L3.25347 1.17617L3.3259 1.40519C3.33529 1.43484 3.30156 1.45937 3.2762 1.44128L3.08077 1.3016L2.88533 1.44128C2.86005 1.4594 2.82629 1.43484 2.83563 1.40519L2.90807 1.17617L2.71485 1.03348C2.68986 1.015 2.70271 0.975325 2.73383 0.975074L2.97403 0.973212L3.05001 0.745334C3.05996 0.715829 3.10168 0.715829 3.11153 0.745334Z" fill="#F5F5F5"/>
<path d="M3.11153 2.64624L3.18751 2.87412L3.4277 2.87598C3.45879 2.87623 3.47171 2.9159 3.44668 2.93438L3.25347 3.07707L3.3259 3.3061C3.33529 3.33575 3.30156 3.36027 3.2762 3.34219L3.08077 3.20251L2.88533 3.34219C2.86005 3.36031 2.82629 3.33575 2.83563 3.3061L2.90807 3.07707L2.71485 2.93438C2.68986 2.9159 2.70271 2.87623 2.73383 2.87598L2.97403 2.87412L3.05001 2.64624C3.05996 2.6167 3.10168 2.6167 3.11153 2.64624Z" fill="#F5F5F5"/>
<path d="M3.11153 4.75449L3.18751 4.98237L3.4277 4.98423C3.45879 4.98448 3.47171 5.02415 3.44668 5.04267L3.25347 5.18536L3.3259 5.41438C3.33529 5.44403 3.30156 5.46856 3.2762 5.45048L3.08077 5.31079L2.88533 5.45048C2.86005 5.46859 2.82629 5.44403 2.83563 5.41438L2.90807 5.18536L2.71485 5.04267C2.68986 5.02419 2.70271 4.98448 2.73383 4.98423L2.97403 4.98237L3.05001 4.75449C3.05996 4.72498 3.10168 4.72498 3.11153 4.75449Z" fill="#F5F5F5"/>
<path d="M3.11146 6.69157L3.18744 6.91944L3.42763 6.92131C3.45871 6.92156 3.47164 6.96123 3.44661 6.97971L3.2534 7.1224L3.32583 7.35142C3.33521 7.38107 3.30148 7.4056 3.27613 7.38752L3.08077 7.2478L2.88533 7.38748C2.86005 7.4056 2.82629 7.38104 2.83563 7.35139L2.90807 7.12236L2.71485 6.97967C2.68986 6.9612 2.70271 6.92152 2.73383 6.92127L2.97403 6.91941L3.05001 6.69153C3.05989 6.66206 3.10161 6.66206 3.11146 6.69157Z" fill="#F5F5F5"/>
<path d="M3.11153 8.4542L3.18751 8.68207L3.4277 8.68394C3.45879 8.68419 3.47171 8.72386 3.44668 8.74234L3.25347 8.88503L3.3259 9.11405C3.33529 9.1437 3.30156 9.16823 3.2762 9.15015L3.08077 9.01046L2.88533 9.15015C2.86005 9.16827 2.82629 9.1437 2.83563 9.11405L2.90807 8.88503L2.71485 8.74234C2.68986 8.72386 2.70271 8.68415 2.73383 8.68394L2.97403 8.68207L3.05001 8.4542C3.05996 8.42469 3.10168 8.42469 3.11153 8.4542Z" fill="#F5F5F5"/>
<path d="M4.03682 1.64548L4.1128 1.87336L4.353 1.87522C4.38408 1.87547 4.39701 1.91515 4.37198 1.93362L4.17876 2.07631L4.2512 2.30534C4.26058 2.33499 4.22685 2.35951 4.2015 2.34143L4.00606 2.20175L3.81062 2.34143C3.78534 2.35955 3.75158 2.33499 3.76092 2.30534L3.83336 2.07631L3.64015 1.93362C3.61515 1.91515 3.62801 1.87547 3.65912 1.87522L3.89943 1.87336L3.97541 1.64548C3.98526 1.61598 4.02697 1.61598 4.03682 1.64548Z" fill="#F5F5F5"/>
<path d="M4.03682 3.75376L4.1128 3.98163L4.353 3.9835C4.38408 3.98375 4.39701 4.02342 4.37198 4.0419L4.17876 4.18459L4.2512 4.41361C4.26058 4.44326 4.22685 4.46779 4.2015 4.44971L4.00606 4.31002L3.81062 4.44971C3.78534 4.46783 3.75158 4.44326 3.76092 4.41361L3.83336 4.18459L3.64015 4.0419C3.61515 4.02342 3.62801 3.98375 3.65912 3.9835L3.89932 3.98163L3.9753 3.75376C3.98526 3.72425 4.02697 3.72425 4.03682 3.75376Z" fill="#F5F5F5"/>
<path d="M4.03682 5.75678L4.1128 5.98466L4.353 5.98652C4.38408 5.98677 4.39701 6.02645 4.37198 6.04492L4.17876 6.18762L4.2512 6.41664C4.26058 6.44629 4.22685 6.47082 4.2015 6.45273L4.00606 6.31305L3.81062 6.45273C3.78534 6.47085 3.75158 6.44629 3.76092 6.41664L3.83336 6.18762L3.64015 6.04492C3.61515 6.02645 3.62801 5.98677 3.65912 5.98652L3.89932 5.98466L3.9753 5.75678C3.98526 5.72731 4.02697 5.72731 4.03682 5.75678Z" fill="#F5F5F5"/>
<path d="M4.03682 7.5556L4.1128 7.78348L4.353 7.78534C4.38408 7.78559 4.39701 7.82527 4.37198 7.84374L4.17876 7.98644L4.2512 8.21546C4.26058 8.24511 4.22685 8.26964 4.2015 8.25155L4.00606 8.11187L3.81062 8.25155C3.78534 8.26967 3.75158 8.24511 3.76092 8.21546L3.83336 7.98644L3.64015 7.84374C3.61515 7.82527 3.62801 7.78559 3.65912 7.78534L3.89932 7.78348L3.9753 7.5556C3.98526 7.52606 4.02697 7.52606 4.03682 7.5556Z" fill="#F5F5F5"/>
<path d="M4.96162 0.745334L5.03761 0.973212L5.2778 0.975074C5.30888 0.975325 5.32181 1.015 5.29678 1.03348L5.10356 1.17617L5.176 1.40519C5.18538 1.43484 5.15165 1.45937 5.1263 1.44128L4.93087 1.3016L4.73543 1.44128C4.71015 1.4594 4.67638 1.43484 4.68573 1.40519L4.75817 1.17617L4.56495 1.03348C4.53996 1.015 4.55281 0.975325 4.58393 0.975074L4.82412 0.973212L4.90011 0.745334C4.91006 0.715829 4.95178 0.715829 4.96162 0.745334Z" fill="#F5F5F5"/>
<path d="M4.96162 2.64624L5.03761 2.87412L5.2778 2.87598C5.30888 2.87623 5.32181 2.9159 5.29678 2.93438L5.10356 3.07707L5.176 3.3061C5.18538 3.33575 5.15165 3.36027 5.1263 3.34219L4.93087 3.20251L4.73543 3.34219C4.71015 3.36031 4.67638 3.33575 4.68573 3.3061L4.75817 3.07707L4.56495 2.93438C4.53996 2.9159 4.55281 2.87623 4.58393 2.87598L4.82412 2.87412L4.90011 2.64624C4.91006 2.6167 4.95178 2.6167 4.96162 2.64624Z" fill="#F5F5F5"/>
<path d="M4.96162 4.75449L5.03761 4.98237L5.2778 4.98423C5.30888 4.98448 5.32181 5.02415 5.29678 5.04267L5.10356 5.18536L5.176 5.41438C5.18538 5.44403 5.15165 5.46856 5.1263 5.45048L4.93087 5.31079L4.73543 5.45048C4.71015 5.46859 4.67638 5.44403 4.68573 5.41438L4.75817 5.18536L4.56495 5.04267C4.53996 5.02419 4.55281 4.98448 4.58393 4.98423L4.82412 4.98237L4.90011 4.75449C4.91006 4.72498 4.95178 4.72498 4.96162 4.75449Z" fill="#F5F5F5"/>
<path d="M4.96162 6.69156L5.03761 6.91944L5.2778 6.9213C5.30888 6.92155 5.32181 6.96123 5.29678 6.9797L5.10356 7.1224L5.176 7.35142C5.18538 7.38107 5.15165 7.4056 5.1263 7.38751L4.93087 7.24783L4.73543 7.38751C4.71015 7.40563 4.67638 7.38107 4.68573 7.35142L4.75817 7.1224L4.56495 6.9797C4.53996 6.96123 4.55281 6.92155 4.58393 6.9213L4.82412 6.91944L4.90011 6.69156C4.91006 6.66206 4.95178 6.66206 4.96162 6.69156Z" fill="#F5F5F5"/>
<path d="M4.96162 8.4542L5.03761 8.68207L5.2778 8.68394C5.30888 8.68419 5.32181 8.72386 5.29678 8.74234L5.10356 8.88503L5.176 9.11405C5.18538 9.1437 5.15165 9.16823 5.1263 9.15015L4.93087 9.01046L4.73543 9.15015C4.71015 9.16827 4.67638 9.1437 4.68573 9.11405L4.75817 8.88503L4.56495 8.74234C4.53996 8.72386 4.55281 8.68415 4.58393 8.68394L4.82412 8.68207L4.90011 8.4542C4.91006 8.42469 4.95178 8.42469 4.96162 8.4542Z" fill="#F5F5F5"/>
<path d="M5.88692 1.64548L5.9629 1.87336L6.2031 1.87522C6.23418 1.87547 6.2471 1.91515 6.22207 1.93362L6.02886 2.07631L6.1013 2.30534C6.11068 2.33499 6.07695 2.35951 6.0516 2.34143L5.85616 2.20175L5.66072 2.34143C5.63544 2.35955 5.60168 2.33499 5.61102 2.30534L5.68346 2.07631L5.49025 1.93362C5.46525 1.91515 5.47811 1.87547 5.50919 1.87522L5.74938 1.87336L5.82537 1.64548C5.83536 1.61598 5.87707 1.61598 5.88692 1.64548Z" fill="#F5F5F5"/>
<path d="M5.88692 3.75376L5.9629 3.98163L6.2031 3.9835C6.23418 3.98375 6.2471 4.02342 6.22207 4.0419L6.02886 4.18459L6.1013 4.41361C6.11068 4.44326 6.07695 4.46779 6.0516 4.44971L5.85616 4.31002L5.66072 4.44971C5.63544 4.46783 5.60168 4.44326 5.61102 4.41361L5.68346 4.18459L5.49025 4.0419C5.46525 4.02342 5.47811 3.98375 5.50919 3.9835L5.74938 3.98163L5.82537 3.75376C5.83536 3.72425 5.87707 3.72425 5.88692 3.75376Z" fill="#F5F5F5"/>
<path d="M5.88692 5.75678L5.9629 5.98466L6.2031 5.98652C6.23418 5.98677 6.2471 6.02645 6.22207 6.04492L6.02886 6.18762L6.1013 6.41664C6.11068 6.44629 6.07695 6.47082 6.0516 6.45273L5.85616 6.31305L5.66072 6.45273C5.63544 6.47085 5.60168 6.44629 5.61102 6.41664L5.68346 6.18762L5.49025 6.04492C5.46525 6.02645 5.47811 5.98677 5.50919 5.98652L5.74938 5.98466L5.82537 5.75678C5.83536 5.72731 5.87707 5.72731 5.88692 5.75678Z" fill="#F5F5F5"/>
<path d="M5.88692 7.5556L5.9629 7.78348L6.2031 7.78534C6.23418 7.78559 6.2471 7.82527 6.22207 7.84374L6.02886 7.98644L6.1013 8.21546C6.11068 8.24511 6.07695 8.26964 6.0516 8.25155L5.85616 8.11187L5.66072 8.25155C5.63544 8.26967 5.60168 8.24511 5.61102 8.21546L5.68346 7.98644L5.49025 7.84374C5.46525 7.82527 5.47811 7.78559 5.50919 7.78534L5.74938 7.78348L5.82537 7.5556C5.83536 7.52606 5.87707 7.52606 5.88692 7.5556Z" fill="#F5F5F5"/>
<path d="M6.81221 0.745334L6.88819 0.973212L7.12839 0.975074C7.15947 0.975325 7.1724 1.015 7.14737 1.03348L6.95415 1.17617L7.02659 1.40519C7.03597 1.43484 7.00224 1.45937 6.97689 1.44128L6.78145 1.3016L6.58602 1.44128C6.56074 1.4594 6.52697 1.43484 6.53632 1.40519L6.60875 1.17617L6.41554 1.03348C6.39054 1.015 6.4034 0.975325 6.43451 0.975074L6.67471 0.973212L6.75069 0.745334C6.76065 0.715829 6.80236 0.715829 6.81221 0.745334Z" fill="#F5F5F5"/>
<path d="M6.81221 2.64624L6.88819 2.87412L7.12839 2.87598C7.15947 2.87623 7.1724 2.9159 7.14737 2.93438L6.95415 3.07707L7.02659 3.3061C7.03597 3.33575 7.00224 3.36027 6.97689 3.34219L6.78145 3.20251L6.58602 3.34219C6.56074 3.36031 6.52697 3.33575 6.53632 3.3061L6.60875 3.07707L6.41554 2.93438C6.39054 2.9159 6.4034 2.87623 6.43451 2.87598L6.67471 2.87412L6.75069 2.64624C6.76065 2.6167 6.80236 2.6167 6.81221 2.64624Z" fill="#F5F5F5"/>
<path d="M6.81221 4.75449L6.88819 4.98237L7.12839 4.98423C7.15947 4.98448 7.1724 5.02415 7.14737 5.04267L6.95415 5.18536L7.02659 5.41438C7.03597 5.44403 7.00224 5.46856 6.97689 5.45048L6.78145 5.31079L6.58602 5.45048C6.56074 5.46859 6.52697 5.44403 6.53632 5.41438L6.60875 5.18536L6.41554 5.04267C6.39054 5.02419 6.4034 4.98448 6.43451 4.98423L6.67471 4.98237L6.75069 4.75449C6.76065 4.72498 6.80236 4.72498 6.81221 4.75449Z" fill="#F5F5F5"/>
<path d="M6.81221 6.69156L6.88819 6.91944L7.12839 6.9213C7.15947 6.92155 7.1724 6.96123 7.14737 6.9797L6.95415 7.1224L7.02659 7.35142C7.03597 7.38107 7.00224 7.4056 6.97689 7.38751L6.78145 7.24783L6.58602 7.38751C6.56074 7.40563 6.52697 7.38107 6.53632 7.35142L6.60875 7.1224L6.41554 6.9797C6.39054 6.96123 6.4034 6.92155 6.43451 6.9213L6.67471 6.91944L6.75069 6.69156C6.76065 6.66206 6.80236 6.66206 6.81221 6.69156Z" fill="#F5F5F5"/>
<path d="M6.81221 8.4542L6.88819 8.68207L7.12839 8.68394C7.15947 8.68419 7.1724 8.72386 7.14737 8.74234L6.95415 8.88503L7.02659 9.11405C7.03597 9.1437 7.00224 9.16823 6.97689 9.15015L6.78145 9.01046L6.58602 9.15015C6.56074 9.16827 6.52697 9.1437 6.53632 9.11405L6.60875 8.88503L6.41554 8.74234C6.39054 8.72386 6.4034 8.68415 6.43451 8.68394L6.67471 8.68207L6.75069 8.4542C6.76065 8.42469 6.80236 8.42469 6.81221 8.4542Z" fill="#F5F5F5"/>
<path d="M7.7375 1.64548L7.81349 1.87336L8.05368 1.87522C8.08476 1.87547 8.09769 1.91515 8.07266 1.93362L7.87944 2.07631L7.95188 2.30534C7.96126 2.33499 7.92753 2.35951 7.90218 2.34143L7.70674 2.20175L7.51131 2.34143C7.48603 2.35955 7.45226 2.33499 7.46161 2.30534L7.53405 2.07631L7.34083 1.93362C7.31584 1.91515 7.32869 1.87547 7.35981 1.87522L7.6 1.87336L7.67599 1.64548C7.6859 1.61598 7.72766 1.61598 7.7375 1.64548Z" fill="#F5F5F5"/>
<path d="M7.7375 3.75376L7.81349 3.98163L8.05368 3.9835C8.08476 3.98375 8.09769 4.02342 8.07266 4.0419L7.87944 4.18459L7.95188 4.41361C7.96126 4.44326 7.92753 4.46779 7.90218 4.44971L7.70674 4.31002L7.51131 4.44971C7.48603 4.46783 7.45226 4.44326 7.46161 4.41361L7.53405 4.18459L7.34083 4.0419C7.31584 4.02342 7.32869 3.98375 7.35981 3.9835L7.6 3.98163L7.67599 3.75376C7.6859 3.72425 7.72766 3.72425 7.7375 3.75376Z" fill="#F5F5F5"/>
<path d="M7.7375 5.75678L7.81349 5.98466L8.05368 5.98652C8.08476 5.98677 8.09769 6.02645 8.07266 6.04492L7.87944 6.18762L7.95188 6.41664C7.96126 6.44629 7.92753 6.47082 7.90218 6.45273L7.70674 6.31305L7.51131 6.45273C7.48603 6.47085 7.45226 6.44629 7.46161 6.41664L7.53405 6.18762L7.34083 6.04492C7.31584 6.02645 7.32869 5.98677 7.35981 5.98652L7.6 5.98466L7.67599 5.75678C7.6859 5.72731 7.72766 5.72731 7.7375 5.75678Z" fill="#F5F5F5"/>
<path d="M7.7375 7.5556L7.81349 7.78348L8.05368 7.78534C8.08476 7.78559 8.09769 7.82527 8.07266 7.84374L7.87944 7.98644L7.95188 8.21546C7.96126 8.24511 7.92753 8.26964 7.90218 8.25155L7.70674 8.11187L7.51131 8.25155C7.48603 8.26967 7.45226 8.24511 7.46161 8.21546L7.53405 7.98644L7.34083 7.84374C7.31584 7.82527 7.32869 7.78559 7.35981 7.78534L7.6 7.78348L7.67599 7.5556C7.6859 7.52606 7.72766 7.52606 7.7375 7.5556Z" fill="#F5F5F5"/>
<path d="M8.6628 0.745334L8.73878 0.973212L8.97897 0.975074C9.01006 0.975325 9.02298 1.015 8.99795 1.03348L8.80474 1.17617L8.87717 1.40519C8.88656 1.43484 8.85283 1.45937 8.82747 1.44128L8.63204 1.3016L8.4366 1.44128C8.41132 1.4594 8.37756 1.43484 8.3869 1.40519L8.45934 1.17617L8.26612 1.03348C8.24113 1.015 8.25398 0.975325 8.2851 0.975074L8.5253 0.973212L8.60128 0.745334C8.6112 0.715829 8.65295 0.715829 8.6628 0.745334Z" fill="#F5F5F5"/>
<path d="M8.6628 2.64624L8.73878 2.87412L8.97897 2.87598C9.01006 2.87623 9.02298 2.9159 8.99795 2.93438L8.80474 3.07707L8.87717 3.3061C8.88656 3.33575 8.85283 3.36027 8.82747 3.34219L8.63204 3.20251L8.4366 3.34219C8.41132 3.36031 8.37756 3.33575 8.3869 3.3061L8.45934 3.07707L8.26612 2.93438C8.24113 2.9159 8.25398 2.87623 8.2851 2.87598L8.5253 2.87412L8.60128 2.64624C8.6112 2.6167 8.65295 2.6167 8.6628 2.64624Z" fill="#F5F5F5"/>
<path d="M8.6628 4.75449L8.73878 4.98237L8.97897 4.98423C9.01006 4.98448 9.02298 5.02415 8.99795 5.04267L8.80474 5.18536L8.87717 5.41438C8.88656 5.44403 8.85283 5.46856 8.82747 5.45048L8.63204 5.31079L8.4366 5.45048C8.41132 5.46859 8.37756 5.44403 8.3869 5.41438L8.45934 5.18536L8.26612 5.04267C8.24113 5.02419 8.25398 4.98448 8.2851 4.98423L8.5253 4.98237L8.60128 4.75449C8.6112 4.72498 8.65295 4.72498 8.6628 4.75449Z" fill="#F5F5F5"/>
<path d="M8.6628 6.69156L8.73878 6.91944L8.97897 6.9213C9.01006 6.92155 9.02298 6.96123 8.99795 6.9797L8.80474 7.1224L8.87717 7.35142C8.88656 7.38107 8.85283 7.4056 8.82747 7.38751L8.63204 7.24783L8.4366 7.38751C8.41132 7.40563 8.37756 7.38107 8.3869 7.35142L8.45934 7.1224L8.26612 6.9797C8.24113 6.96123 8.25398 6.92155 8.2851 6.9213L8.5253 6.91944L8.60128 6.69156C8.6112 6.66206 8.65295 6.66206 8.6628 6.69156Z" fill="#F5F5F5"/>
<path d="M8.6628 8.4542L8.73878 8.68207L8.97897 8.68394C9.01006 8.68419 9.02298 8.72386 8.99795 8.74234L8.80474 8.88503L8.87717 9.11405C8.88656 9.1437 8.85283 9.16823 8.82747 9.15015L8.63204 9.01046L8.4366 9.15015C8.41132 9.16827 8.37756 9.1437 8.3869 9.11405L8.45934 8.88503L8.26612 8.74234C8.24113 8.72386 8.25398 8.68415 8.2851 8.68394L8.5253 8.68207L8.60128 8.4542C8.6112 8.42469 8.65295 8.42469 8.6628 8.4542Z" fill="#F5F5F5"/>
</g>
<defs>
<clipPath id="clip0_186_4">
<rect width="18.3333" height="18.3333" rx="9.16667" fill="white"/>
</clipPath>
</defs>
</svg>
